<svg width="24.000000" height="14.000000" viewBox="0 0 24 14" fill="none" xmlns="http://www.w3.org/2000/svg" xmlns:xlink="http://www.w3.org/1999/xlink">
	<desc>
			Created with Pixso.
	</desc>
	<defs/>
	<path id="Vector" d="M12 0C11.07 0 10.18 0.36 9.52 1.02C8.86 1.68 8.5 2.57 8.5 3.5C8.5 4.42 8.86 5.31 9.52 5.97C10.18 6.63 11.07 7 12 7C12.92 7 13.81 6.63 14.47 5.97C15.13 5.31 15.5 4.42 15.5 3.5C15.5 2.57 15.13 1.68 14.47 1.02C13.81 0.36 12.92 0 12 0ZM12 2C12.39 2 12.77 2.15 13.06 2.43C13.34 2.72 13.5 3.1 13.5 3.5C13.5 3.89 13.34 4.27 13.06 4.56C12.77 4.84 12.39 5 12 5C11.6 5 11.22 4.84 10.93 4.56C10.65 4.27 10.5 3.89 10.5 3.5C10.5 3.1 10.65 2.72 10.93 2.43C11.22 2.15 11.6 2 12 2ZM5.5 3C4.83 3 4.2 3.26 3.73 3.73C3.26 4.2 3 4.83 3 5.5C3 6.44 3.53 7.25 4.29 7.67C4.65 7.88 5.06 8 5.5 8C5.94 8 6.35 7.88 6.71 7.67C7.08 7.46 7.39 7.16 7.62 6.81C6.89 5.85 6.5 4.7 6.5 3.5C6.5 3.4 6.5 3.31 6.5 3.21C6.2 3.08 5.86 3 5.5 3ZM18.5 3C18.14 3 17.79 3.08 17.5 3.21C17.5 3.31 17.5 3.4 17.5 3.5C17.5 4.7 17.11 5.85 16.37 6.81C16.5 7 16.62 7.15 16.78 7.29C16.94 7.45 17.1 7.58 17.29 7.67C17.65 7.88 18.06 8 18.5 8C18.94 8 19.35 7.88 19.7 7.67C20.46 7.25 21 6.44 21 5.5C21 4.83 20.73 4.2 20.26 3.73C19.79 3.26 19.16 3 18.5 3ZM12 9C9.66 9 5 10.17 5 12.5L5 14L19 14L19 12.5C19 10.17 14.34 9 12 9ZM4.71 9.54C2.78 9.78 0 10.76 0 12.5L0 14L3 14L3 12.07C3 11.06 3.69 10.22 4.71 9.54ZM19.29 9.54C20.31 10.22 21 11.06 21 12.07L21 14L24 14L24 12.5C24 10.76 21.22 9.78 19.29 9.54ZM12 11C13.53 11 15.24 11.5 16.23 12L7.77 12C8.76 11.5 10.47 11 12 11Z" fill="#000000" fill-opacity="1.000000" fill-rule="nonzero"/>
</svg>
