<svg  viewBox="0 0 28.8751 28.3333" fill="none" xmlns="http://www.w3.org/2000/svg" xmlns:xlink="http://www.w3.org/1999/xlink">
	<desc>
			Created with Pixso.
	</desc>
	<defs/>
	<path id="Vector" d="M14.87 7.49C15.15 7.23 15.5 7.08 15.88 7.08C16.27 7.08 16.6 7.23 16.9 7.49C17.18 7.79 17.32 8.13 17.32 8.5C17.32 8.88 17.18 9.2 16.9 9.5C16.6 9.77 16.27 9.91 15.88 9.91C15.5 9.91 15.15 9.77 14.87 9.5C14.59 9.2 14.43 8.88 14.43 8.5C14.43 8.13 14.59 7.79 14.87 7.49ZM11.26 14.12C11.26 14.12 14.39 11.68 15.53 11.58C16.6 11.5 16.38 12.7 16.28 13.33L16.27 13.41C16.06 14.16 15.82 15.07 15.57 15.93C15.02 17.9 14.49 19.83 14.62 20.18C14.76 20.66 15.66 20.06 16.31 19.63C16.4 19.57 16.47 19.52 16.54 19.47C16.54 19.47 16.66 19.36 16.77 19.52C16.8 19.56 16.83 19.6 16.86 19.63C16.99 19.83 17.06 19.9 16.89 20.01L16.83 20.04C16.51 20.25 15.15 21.19 14.61 21.53C14.01 21.91 11.75 23.19 12.09 20.71C12.4 18.96 12.8 17.46 13.12 16.29C13.71 14.16 13.97 13.2 12.64 14.03C12.11 14.35 11.79 14.54 11.6 14.67C11.44 14.79 11.43 14.79 11.33 14.6L11.29 14.52L11.21 14.4C11.11 14.26 11.11 14.25 11.26 14.12ZM28.87 14.16C28.87 21.95 22.37 28.33 14.43 28.33C6.49 28.33 0 21.95 0 14.16C0 6.37 6.49 0 14.43 0C22.37 0 28.87 6.37 28.87 14.16ZM25.98 14.16C25.98 7.9 20.81 2.83 14.43 2.83C8.05 2.83 2.88 7.9 2.88 14.16C2.88 20.42 8.05 25.5 14.43 25.5C20.81 25.5 25.98 20.42 25.98 14.16Z" fill="#6F914F" fill-opacity="1.000000" fill-rule="nonzero"/>
</svg>
