<svg width="22.000000" height="20.000000" viewBox="0 0 22 20" fill="none" xmlns="http://www.w3.org/2000/svg" xmlns:xlink="http://www.w3.org/1999/xlink">
	<desc>
			Created with Pixso.
	</desc>
	<defs/>
	<path id="Vector" d="M4 8L4 20L0 20L0 8L4 8ZM8 20C7.46 20 6.96 19.78 6.58 19.41C6.21 19.03 6 18.53 6 18L6 8C6 7.45 6.22 6.95 6.59 6.59L13.17 0L14.23 1.05C14.5 1.33 14.67 1.7 14.67 2.1L14.64 2.42L13.69 7L20 7C21.11 7 22 7.9 22 9L22 11C22 11.26 21.95 11.5 21.86 11.73L18.84 18.78C18.54 19.5 17.83 20 17 20L8 20ZM8 18L17.03 18L20 11L20 9L11.21 9L12.34 3.67L8 8.03L8 18Z" fill="#000000" fill-opacity="1.000000" fill-rule="nonzero"/>
</svg>
