<svg width="16.000000" height="16.000000" viewBox="0 0 16 16" fill="none" xmlns="http://www.w3.org/2000/svg" xmlns:xlink="http://www.w3.org/1999/xlink">
	<desc>
			Created with Pixso.
	</desc>
	<defs/>
	<path id="Vector" d="M8 0C9.06 0 10.07 0.42 10.82 1.17C11.57 1.92 12 2.93 12 4C12 5.06 11.57 6.07 10.82 6.82C10.07 7.57 9.06 8 8 8C6.93 8 5.92 7.57 5.17 6.82C4.42 6.07 4 5.06 4 4C4 2.93 4.42 1.92 5.17 1.17C5.92 0.42 6.93 0 8 0ZM8 2C7.46 2 6.96 2.21 6.58 2.58C6.21 2.96 6 3.46 6 4C6 4.53 6.21 5.03 6.58 5.41C6.96 5.78 7.46 6 8 6C8.53 6 9.03 5.78 9.41 5.41C9.78 5.03 10 4.53 10 4C10 3.46 9.78 2.96 9.41 2.58C9.03 2.21 8.53 2 8 2ZM8 9C10.67 9 16 10.33 16 13L16 16L0 16L0 13C0 10.33 5.33 9 8 9ZM8 10.9C5.03 10.9 1.9 12.36 1.9 13L1.9 14.1L14.1 14.1L14.1 13C14.1 12.36 10.97 10.9 8 10.9Z" fill="#000000" fill-opacity="1.000000" fill-rule="nonzero"/>
</svg>
