<svg width="16.000000" height="20.000000" viewBox="0 0 16 20" fill="none" xmlns="http://www.w3.org/2000/svg" xmlns:xlink="http://www.w3.org/1999/xlink">
	<desc>
			Created with Pixso.
	</desc>
	<defs/>
	<path id="Vector" d="M8 0C8 0 3 2 3 10C3 13.1 3.76 15.75 4.67 17.83C5 18.54 5.71 19 6.5 19L9.5 19C10.29 19 11 18.54 11.33 17.83C12.25 15.75 13 13.1 13 10C13 2 8 0 8 0ZM9.5 17L6.5 17C5.5 14.76 5 12.41 5 10C5 5.35 6.9 3.2 8 2.33C9.1 3.2 11 5.35 11 10C11 12.41 10.5 14.76 9.5 17ZM16 20L12.14 18.45C12.84 16.92 13.34 15.34 13.65 13.73L16 20ZM3.86 18.45L0 20L2.34 13.73C2.66 15.34 3.16 16.92 3.86 18.45ZM8 10C6.9 10 6 9.09 6 8C6 6.9 6.9 6 8 6C9.1 6 10 6.9 10 8C10 9.09 9.1 10 8 10Z" fill="#000000" fill-opacity="1.000000" fill-rule="nonzero"/>
</svg>
