<svg width="22.000000" height="22.000000" viewBox="0 0 22 22" fill="none" xmlns="http://www.w3.org/2000/svg" xmlns:xlink="http://www.w3.org/1999/xlink">
	<desc>
			Created with Pixso.
	</desc>
	<defs/>
	<path id="Vector" d="M14.09 6.62L12.1 2.36L11 0L9.89 2.36L7.9 6.62L2.93 7L0 7.23L2.31 9.06L5.99 11.97L4.87 16.34L4.45 18L4.2 19L6.02 18L6.6 17.68L11 15.27L15.39 17.68L15.97 18L17.79 19L17.54 18L17.11 16.34L15.99 11.97L19.68 9.06L22 7.23L19.06 7L14.09 6.62ZM16.74 8.83L12.77 8.52L12.27 7.46L11 4.72L9.22 8.52L5.24 8.83L8.25 11.2L7.27 15.03L11 12.98L14.71 15.02L13.73 11.2L16.74 8.83ZM15.46 20L14.3 20L14.3 22L16.5 22L16.5 20L15.46 20ZM6.53 20L5.5 20L5.5 22L7.7 22L7.7 20L6.53 20ZM11.9 22L12.1 22L12.1 20L9.89 20L9.89 22L11.9 22Z" fill="#000000" fill-opacity="1.000000" fill-rule="evenodd"/>
</svg>
